{
  "accessors": [
    {
      "bufferView": 2,
      "componentType": 5126,
      "count": 951,
      "max": [
        0.11735718697309494,
        0.15483281016349792,
        0.019582275301218033
      ],
      "min": [
        -0.11735520511865616,
        -0.1548384428024292,
        -0.019582275301218033
      ],
      "type": "VEC3"
    },
    {
      "bufferView": 2,
      "byteOffset": 11412,
      "componentType": 5126,
      "count": 951,
      "max": [
        0.9999691843986511,
        1.0,
        1.0
      ],
      "min": [
        -1.0,
        -0.984889566898346,
        -1.0
      ],
      "type": "VEC3"
    },
    {
      "bufferView": 3,
      "componentType": 5126,
      "count": 951,
      "max": [
        0.9999976754188538,
        0.9848705530166626,
        1.0,
        1.0
      ],
      "min": [
        -1.0,
        -0.9999691843986511,
        -1.0,
        -1.0
      ],
      "type": "VEC4"
    },
    {
      "bufferView": 1,
      "componentType": 5126,
      "count": 951,
      "max": [
        0.986328125,
        0.9954299926757813
      ],
      "min": [
        0.0033893585205078125,
        0.046875
      ],
      "type": "VEC2"
    },
    {
      "bufferView": 1,
      "byteOffset": 7608,
      "componentType": 5126,
      "count": 951,
      "max": [
        0.65087890625,
        0.345703125
      ],
      "min": [
        3.0517578125e-05,
        0.0
      ],
      "type": "VEC2"
    },
    {
      "bufferView": 1,
      "byteOffset": 15216,
      "componentType": 5126,
      "count": 951,
      "max": [
        0.9921875,
        0.9919357299804688
      ],
      "min": [
        0.00806427001953125,
        0.0107421875
      ],
      "type": "VEC2"
    },
    {
      "bufferView": 0,
      "componentType": 5125,
      "count": 3228,
      "type": "SCALAR"
    },
    {
      "bufferView": 2,
      "byteOffset": 22824,
      "componentType": 5126,
      "count": 6388,
      "max": [
        0.881991982460022,
        0.16464363038539886,
        0.03260808065533638
      ],
      "min": [
        -0.3993910253047943,
        -0.13332568109035492,
        -0.051131486892700195
      ],
      "type": "VEC3"
    },
    {
      "bufferView": 2,
      "byteOffset": 99480,
      "componentType": 5126,
      "count": 6388,
      "max": [
        1.0,
        1.0,
        1.0
      ],
      "min": [
        -1.0,
        -1.0,
        -1.0
      ],
      "type": "VEC3"
    },
    {
      "bufferView": 3,
      "byteOffset": 15216,
      "componentType": 5126,
      "count": 6388,
      "max": [
        1.0,
        1.0,
        1.0,
        1.0
      ],
      "min": [
        -1.0,
        -1.0,
        -1.0,
        -1.0
      ],
      "type": "VEC4"
    },
    {
      "bufferView": 1,
      "byteOffset": 22824,
      "componentType": 5126,
      "count": 6388,
      "max": [
        0.99658203125,
        0.9985160827636719
      ],
      "min": [
        0.00276947021484375,
        0.00341796875
      ],
      "type": "VEC2"
    },
    {
      "bufferView": 1,
      "byteOffset": 73928,
      "componentType": 5126,
      "count": 6388,
      "max": [
        0.98974609375,
        0.872802734375
      ],
      "min": [
        0.006336212158203125,
        0.234375
      ],
      "type": "VEC2"
    },
    {
      "bufferView": 0,
      "byteOffset": 12912,
      "componentType": 5125,
      "count": 23451,
      "type": "SCALAR"
    }
  ],
  "asset": {
    "extras": {
      "author": "xxchelxx (https://sketchfab.com/xxchelxx)",
      "license": "CC-BY-4.0 (http://creativecommons.org/licenses/by/4.0/)",
      "source": "https://sketchfab.com/3d-models/vandal-0dd5c4e5342a42d9b6969b7f4e6ac69e",
      "title": "VANDAL"
    },
    "generator": "Sketchfab-14.27.0",
    "version": "2.0"
  },
  "bufferViews": [
    {
      "buffer": 0,
      "byteLength": 106716,
      "name": "floatBufferViews",
      "target": 34963
    },
    {
      "buffer": 0,
      "byteLength": 125032,
      "byteOffset": 106716,
      "byteStride": 8,
      "name": "floatBufferViews",
      "target": 34962
    },
    {
      "buffer": 0,
      "byteLength": 176136,
      "byteOffset": 231748,
      "byteStride": 12,
      "name": "floatBufferViews",
      "target": 34962
    },
    {
      "buffer": 0,
      "byteLength": 117424,
      "byteOffset": 407884,
      "byteStride": 16,
      "name": "floatBufferViews",
      "target": 34962
    }
  ],
  "buffers": [
    {
      "byteLength": 525308,
      "uri": "scene.bin"
    }
  ],
  "images": [
    {
      "uri": "textures/AK_S0_MI_baseColor.png"
    },
    {
      "uri": "textures/AK_S0_MI_metallicRoughness.png"
    },
    {
      "uri": "textures/AK_S0_MI_normal.png"
    }
  ],
  "materials": [
    {
      "doubleSided": true,
      "name": "AK_S0_MI",
      "normalTexture": {
        "index": 2
      },
      "pbrMetallicRoughness": {
        "baseColorTexture": {
          "index": 0
        },
        "metallicRoughnessTexture": {
          "index": 1
        }
      }
    }
  ],
  "meshes": [
    {
      "name": "Object_0",
      "primitives": [
        {
          "attributes": {
            "NORMAL": 1,
            "POSITION": 0,
            "TANGENT": 2,
            "TEXCOORD_0": 3,
            "TEXCOORD_1": 4,
            "TEXCOORD_2": 5
          },
          "indices": 6,
          "material": 0,
          "mode": 4
        }
      ]
    },
    {
      "name": "Object_1",
      "primitives": [
        {
          "attributes": {
            "NORMAL": 8,
            "POSITION": 7,
            "TANGENT": 9,
            "TEXCOORD_0": 10,
            "TEXCOORD_1": 11
          },
          "indices": 12,
          "material": 0,
          "mode": 4
        }
      ]
    }
  ],
  "nodes": [
    {
      "children": [
        1
      ],
      "matrix": [
        1.0,
        0.0,
        0.0,
        0.0,
        0.0,
        2.220446049250313e-16,
        -1.0,
        0.0,
        0.0,
        1.0,
        2.220446049250313e-16,
        0.0,
        0.0,
        0.0,
        0.0,
        1.0
      ],
      "name": "Sketchfab_model"
    },
    {
      "children": [
        2
      ],
      "name": "root"
    },
    {
      "children": [
        3,
        5
      ],
      "matrix": [
        1.0,
        0.0,
        0.0,
        0.0,
        0.0,
        2.220446049250313e-16,
        1.0,
        0.0,
        0.0,
        -1.0,
        2.220446049250313e-16,
        0.0,
        0.0,
        0.0,
        0.0,
        1.0
      ],
      "name": "GLTF_SceneRootNode"
    },
    {
      "children": [
        4
      ],
      "matrix": [
        8.429369480200677e-08,
        0.0,
        -0.9999999999999966,
        0.0,
        0.0,
        1.0,
        0.0,
        0.0,
        0.9999999999999966,
        0.0,
        8.429369480200677e-08,
        0.0,
        0.0,
        0.15889133512973785,
        -0.059724271297454834,
        1.0
      ],
      "name": "mag_1"
    },
    {
      "mesh": 0,
      "name": "Object_4"
    },
    {
      "children": [
        6
      ],
      "matrix": [
        0.0,
        0.0,
        -1.0,
        0.0,
        0.0,
        1.0,
        0.0,
        0.0,
        1.0,
        0.0,
        0.0,
        0.0,
        0.0,
        0.19087101519107819,
        0.21805542707443237,
        1.0
      ],
      "name": "vandal body_2"
    },
    {
      "mesh": 1,
      "name": "Object_6"
    }
  ],
  "samplers": [
    {
      "magFilter": 9729,
      "minFilter": 9987,
      "wrapS": 10497,
      "wrapT": 10497
    }
  ],
  "scene": 0,
  "scenes": [
    {
      "name": "Sketchfab_Scene",
      "nodes": [
        0
      ]
    }
  ],
  "textures": [
    {
      "sampler": 0,
      "source": 0
    },
    {
      "sampler": 0,
      "source": 1
    },
    {
      "sampler": 0,
      "source": 2
    }
  ]
}
